<svg width="24" height="24" viewBox="0 0 24 24" fill="none" xmlns="http://www.w3.org/2000/svg">
<path fill-rule="evenodd" clip-rule="evenodd" d="M12 24C18.6274 24 24 18.6274 24 12C24 5.37258 18.6274 0 12 0C5.37258 0 0 5.37258 0 12C0 18.6274 5.37258 24 12 24ZM16.875 14.1984V8.94844C16.8738 8.65045 16.7548 8.36502 16.5441 8.15431C16.3334 7.94359 16.048 7.82467 15.75 7.82344H8.25C7.95201 7.82467 7.66658 7.94359 7.45587 8.15431C7.24516 8.36502 7.12623 8.65045 7.125 8.94844V14.1984C7.125 14.4968 7.24353 14.783 7.4545 14.9939C7.66548 15.2049 7.95163 15.3234 8.25 15.3234H15.75C16.0484 15.3234 16.3345 15.2049 16.5455 14.9939C16.7565 14.783 16.875 14.4968 16.875 14.1984ZM10.2348 16.1833C10.3052 16.1129 10.4005 16.0734 10.5 16.0734H13.5C13.5995 16.0734 13.6948 16.1129 13.7652 16.1833C13.8355 16.2536 13.875 16.349 13.875 16.4484C13.875 16.5479 13.8355 16.6433 13.7652 16.7136C13.6948 16.7839 13.5995 16.8234 13.5 16.8234H10.5C10.4005 16.8234 10.3052 16.7839 10.2348 16.7136C10.1645 16.6433 10.125 16.5479 10.125 16.4484C10.125 16.349 10.1645 16.2536 10.2348 16.1833Z" fill="#FCFCFC"/>
</svg>
