<svg width="24" height="24" viewBox="0 0 24 24" fill="none" xmlns="http://www.w3.org/2000/svg">
<g clip-path="url(#clip0_5_647)">
<path d="M5.01101 11.4268C5.01099 11.2928 5.03756 11.1601 5.0892 11.0363C5.14084 10.9125 5.21653 10.8001 5.31192 10.7056C5.40731 10.611 5.52053 10.5362 5.64506 10.4853C5.76959 10.4344 5.90299 10.4086 6.03759 10.4092L7.73957 10.4148C8.01094 10.4148 8.2712 10.5221 8.46309 10.7132C8.65498 10.9042 8.76278 11.1634 8.76278 11.4336V17.8419C8.95451 17.7854 9.2004 17.7251 9.46977 17.6621C9.6568 17.6183 9.82348 17.5128 9.9428 17.3629C10.0621 17.2129 10.1271 17.0272 10.1271 16.8359V8.88692C10.1271 8.7531 10.1536 8.62059 10.205 8.49695C10.2564 8.37331 10.3318 8.26097 10.4268 8.16634C10.5218 8.07171 10.6346 7.99664 10.7588 7.94542C10.8829 7.8942 11.016 7.86783 11.1504 7.86782H12.8557C13.1271 7.86786 13.3873 7.97522 13.5792 8.16628C13.7711 8.35735 13.8789 8.61647 13.879 8.88667V16.2646C13.879 16.2646 14.3057 16.0925 14.7218 15.9177C14.8763 15.8527 15.0081 15.7437 15.1008 15.6045C15.1935 15.4654 15.2431 15.3021 15.2432 15.1351V6.33933C15.2432 6.20554 15.2696 6.07305 15.3211 5.94944C15.3725 5.82583 15.4478 5.71351 15.5428 5.6189C15.6378 5.52429 15.7506 5.44924 15.8748 5.39804C15.9989 5.34683 16.132 5.32048 16.2663 5.32048H17.9717C18.243 5.32048 18.5033 5.42782 18.6952 5.61889C18.8871 5.80996 18.9949 6.06911 18.995 6.33933V13.5821C20.4734 12.5152 21.9719 11.2319 23.161 9.68888C23.3335 9.46489 23.4476 9.20187 23.4933 8.92328C23.5389 8.64468 23.5145 8.35918 23.4224 8.09223C22.6178 5.75747 21.1086 3.72715 19.1012 2.27888C17.0938 0.8306 14.6862 0.0350686 12.2074 0.00105738C5.5234 -0.0883488 -0.000598757 5.34459 5.78358e-05 12.0009C-0.00650507 14.1072 0.545585 16.1779 1.6005 18.0036C1.74598 18.2533 1.96001 18.4565 2.21744 18.5893C2.47487 18.722 2.76502 18.7789 3.05379 18.7532C3.37642 18.7249 3.77809 18.685 4.2556 18.6292C4.46344 18.6056 4.65532 18.5068 4.7947 18.3515C4.93407 18.1961 5.01121 17.9952 5.01142 17.7869V11.4268" fill="#FCFCFC"/>
<path d="M4.96566 21.7043C6.75934 23.0064 8.87903 23.788 11.0902 23.9626C13.3014 24.1372 15.5179 23.6979 17.4945 22.6935C19.471 21.6891 21.1306 20.1586 22.2896 18.2714C23.4487 16.3841 24.0619 14.2137 24.0616 12.0003C24.0616 11.724 24.0487 11.4508 24.0302 11.179C19.6371 17.717 11.5258 20.7735 4.96558 21.7045" fill="#FCFCFC"/>
</g>
<defs>
<clipPath id="clip0_5_647">
<rect width="24" height="24" fill="white"/>
</clipPath>
</defs>
</svg>
