<svg width="24" height="24" viewBox="0 0 24 24" fill="none" xmlns="http://www.w3.org/2000/svg">
<path d="M12.0003 14.8086C11.5773 14.8086 11.2344 14.3056 11.2344 13.6852V10.315C11.2344 9.69454 11.5773 9.19157 12.0003 9.19157C12.4234 9.19157 12.7663 9.69454 12.7663 10.315V13.6852C12.7663 14.3056 12.4234 14.8086 12.0003 14.8086Z" fill="white"/>
<path fill-rule="evenodd" clip-rule="evenodd" d="M3.42857 12C3.42857 16.7339 7.26613 20.5714 12 20.5714C16.7339 20.5714 20.5714 16.7339 20.5714 12C20.5714 7.26613 16.7339 3.42857 12 3.42857C7.26613 3.42857 3.42857 7.26613 3.42857 12ZM12 0C5.37258 0 0 5.37258 0 12C0 18.6274 5.37258 24 12 24C18.6274 24 24 18.6274 24 12C24 5.37258 18.6274 0 12 0Z" fill="white"/>
</svg>
